<svg width="1149" height="578" viewBox="0 0 1149 578" fill="none" xmlns="http://www.w3.org/2000/svg">
<g opacity="0.1" filter="url(#filter0_f_14_811)">
<path d="M276.914 627.035C276.752 624.406 277.076 614.061 277.9 612.581C278.724 611.101 280.858 609.297 281.513 609.135C282.168 608.972 290.703 602.235 291.196 602.073C291.689 601.911 294.316 594.356 295.133 592.221C295.957 590.085 296.612 587.788 296.612 585.977C296.612 584.173 297.267 577.598 297.597 576.618C297.928 575.631 299.238 575.962 299.238 575.962L301.21 574.651C301.21 574.651 304.33 566.934 302.851 562.826C302.851 562.826 314.668 558.224 315.816 557.9C316.964 557.569 320.576 556.751 320.576 556.751C320.576 556.751 321.231 551.169 320.739 546.899C320.246 542.628 317.95 483.825 316.14 472.655C314.337 461.484 308.915 430.441 306.781 423.217C304.647 415.993 293.161 406.628 289.548 402.519C285.936 398.41 282.654 397.755 281.344 397.917C280.034 398.079 277.407 396.768 276.583 395.289C275.76 393.809 272.316 391.842 272.316 391.842C272.316 391.842 272.971 383.632 272.971 382.97C272.971 382.314 271.661 380.834 271.661 380.834C271.661 380.834 275.597 370.158 276.583 368.678C277.569 367.198 282.161 360.63 282.161 360.63C282.161 360.63 282.161 362.603 283.309 362.603C284.457 362.603 289.38 354.393 289.38 352.088C289.38 349.791 288.394 347.486 288.394 347.486C288.394 347.486 291.02 338.614 291.351 336.972C291.682 335.33 292.337 332.046 291.682 330.404C291.027 328.761 289.386 326.957 289.055 325.315C288.725 323.673 287.907 322.524 287.907 322.524C287.907 322.524 283.971 318.254 282.654 317.76C281.344 317.267 279.041 315.463 278.386 314.638C277.731 313.814 274.119 313.652 273.626 313.49C273.133 313.328 270.182 311.516 269.027 311.685C267.879 311.848 266.238 312.017 265.415 312.179C264.591 312.341 262.133 312.017 261.478 312.179C260.823 312.341 259.013 313.003 258.358 313.659C257.703 314.314 254.253 313.165 253.436 314.483C252.612 315.794 251.957 315.963 250.809 316.95C249.661 317.936 248.675 316.949 247.689 318.098C246.703 319.247 244.569 323.68 244.245 325.329C243.914 326.971 243.097 326.809 243.259 328.451C243.421 330.093 243.259 330.748 242.604 332.228C241.949 333.708 241.456 332.228 241.949 333.708C242.442 335.188 242.111 336.992 242.111 336.992C242.111 336.992 240.308 337.323 238.83 339.127C237.351 340.932 238.175 342.743 238.006 343.729C237.844 344.716 237.513 347.838 237.844 349.149C238.175 350.46 239.154 351.284 239.647 351.446C240.14 351.608 242.273 350.791 242.273 350.791C242.273 350.791 242.273 353.751 242.436 355.061C242.598 356.372 241.781 359.825 241.45 361.468C241.119 363.11 239.809 368.036 239.809 368.036L238.006 368.86C238.006 368.86 232.259 373.462 231.766 373.949C231.274 374.442 230.619 374.773 230.619 374.773C230.619 374.773 214.865 374.773 211.576 373.624C208.294 372.475 199.266 371.651 197.625 372.313C195.985 372.969 192.541 372.151 188.928 374.78C185.315 377.408 181.872 378.719 178.752 385.95C175.632 393.173 175.632 391.863 175.632 391.863C175.632 391.863 169.069 404.512 166.935 408.783C164.801 413.054 154.787 433.914 152.822 436.543C150.85 439.171 147.076 449.024 146.09 450.173C145.104 451.321 142.97 460.025 142.153 461.18C141.329 462.329 139.033 474.155 139.033 476.128C139.033 478.101 140.181 482.534 140.181 482.534C140.181 482.534 143.301 485.656 142.97 488.285C142.639 490.913 144.28 499.617 144.942 503.887C145.597 508.158 145.928 509.962 145.597 511.442C145.266 512.922 145.928 520.146 146.583 522.45C147.238 524.748 149.54 530.336 150.195 532.14C150.85 533.945 152.329 534.438 152.329 534.438L150.357 540.682C150.357 540.682 151.343 544.459 151.836 546.432C152.329 548.405 152.984 577.807 152.822 580.267C152.66 582.733 151.674 597.512 151.674 600.634C151.674 603.499 148.075 651.68 146.09 665.235H272.525C274.213 651.727 277.036 628.947 276.914 627.035Z" fill="#B8BABB"/>
<path d="M394.234 267.769C393.835 267.188 393.214 266.607 393.214 266.607C393.214 266.607 389.217 266.282 388.204 265.992L388.129 267.12C388.129 267.12 388.744 267.377 389.075 267.701C389.399 268.026 389.514 268.357 389.764 268.465C390.02 268.573 390.817 268.83 391.107 269.154C391.398 269.478 391.762 269.519 392.127 269.769C392.492 270.026 394.308 270.208 394.997 270.276C395.686 270.35 396.813 270.492 396.813 270.492C396.813 270.492 394.632 268.35 394.234 267.769Z" fill="#B8BABB"/>
<path d="M487.716 641.165C486.812 630.921 485.009 607.722 485.461 604.263C485.913 600.796 486.818 598.992 486.514 596.127C486.211 593.261 485.009 567.806 485.157 565.549C485.306 563.292 484.853 557.717 484.853 557.717C484.853 557.717 490.12 565.401 492.382 567.657C494.638 569.914 496.596 568.408 497.048 568.563C497.501 568.712 495.394 572.78 497.048 576.395C498.703 580.01 500.357 583.774 500.661 585.281C500.965 586.788 500.661 592.059 500.81 593.566L498.703 595.823C498.703 595.823 495.239 595.072 494.638 596.573C494.037 598.08 495.09 599.134 495.09 599.134C495.09 599.134 493.436 600.789 494.341 601.843C495.246 602.898 496.144 602.749 496.144 602.749C496.144 602.749 496.292 604.404 497.798 604.404C499.304 604.404 500.357 604.1 500.357 604.1C500.357 604.1 502.012 604.1 503.821 603.796C505.631 603.492 507.738 601.985 508.791 601.688C509.845 601.384 511.803 600.181 511.803 600.181L512.856 598.221C512.856 598.221 513.457 597.769 514.362 596.113C515.267 594.458 515.112 589.187 515.719 588.281C516.32 587.376 516.469 586.322 516.624 584.97C516.773 583.612 513.012 577.74 512.262 575.929C511.513 574.124 508.649 566.441 508.649 566.441C508.649 566.441 513.315 567.948 514.673 567.043C516.03 566.137 515.726 563.279 515.726 563.279L518.886 563.13C518.886 563.13 522.951 559.366 522.499 559.211C522.047 559.062 519.94 548.514 520.244 547.764C520.547 547.013 513.167 523.207 512.417 520.95C511.668 518.693 512.417 490.974 511.513 483.142C510.608 475.31 505.192 455.274 504.888 451.963C504.584 448.652 503.686 436.144 502.781 433.887C501.877 431.63 496.009 423.494 493.598 422.893C491.187 422.291 487.122 420.48 487.122 420.48C487.122 420.48 481.707 416.115 480.646 416.115C479.593 416.115 479.289 415.21 479.289 415.21L479.141 414.46L475.379 412.351C475.379 412.351 476.581 410.54 476.737 408.432C476.885 406.324 476.588 405.418 476.588 405.418C476.588 405.418 478.094 403.31 478.398 402.107C478.702 400.904 478.702 400.904 478.702 400.904C478.702 400.904 483.368 398.039 485.475 393.525C487.581 389.004 488.783 384.037 488.034 380.267C487.284 376.503 487.433 360.535 485.623 356.467C483.813 352.399 479.755 345.925 476.892 343.662C474.029 341.405 471.024 338.688 469.971 338.087C468.917 337.485 465.757 336.58 465.757 336.58C464.778 336.445 459.659 335.141 456.513 335.337C453.366 335.533 451.401 337.898 449.632 339.668C447.863 341.439 445.506 342.425 443.933 344C442.359 345.574 440.786 347.736 439.408 349.703C438.031 351.669 438.227 352.852 437.443 354.818C436.66 356.785 437.248 361.116 436.066 362.096C434.884 363.083 434.884 363.671 434.297 365.441C433.709 367.211 434.101 367.799 434.101 369.773C434.101 371.739 435.087 376.07 435.283 377.841C435.478 379.611 436.268 380.199 436.464 381.578C436.66 382.956 438.429 386.105 439.219 388.072C440.003 390.038 439.611 390.43 439.611 391.613C439.611 392.795 439.611 399.877 439.611 399.877L435.485 403.418C435.485 403.418 434.898 401.647 434.898 400.073C434.898 398.498 432.933 392.795 432.541 391.025C432.149 389.254 431.359 388.464 431.359 386.301C431.359 384.139 431.947 381.186 431.163 378.429C430.38 375.672 430.178 375.28 430.38 372.726C430.576 370.164 429.989 364.461 429.989 364.461L432.939 360.528C432.939 360.528 432.744 357.575 432.744 355.609C432.744 353.642 429.597 349.115 428.219 347.737C426.842 346.358 423.499 342.425 424.485 340.655C425.471 338.884 426.646 336.127 425.667 331.411C424.681 326.687 417.017 327.674 414.262 328.066C411.507 328.457 411.115 319.801 411.115 319.801C409.602 313.652 408.92 308.07 408.61 304.09L408.265 301.772C408.265 301.772 404.963 281 404.511 278.142C404.059 275.276 403.005 271.06 402.256 269.708C401.506 268.35 398.191 265.789 397.137 265.492C396.084 265.188 392.167 262.782 391.87 262.025C391.566 261.275 388.71 259.315 388.71 259.315C388.71 259.315 390.965 253.74 389.162 252.538C387.886 251.686 386.002 254.497 384.8 257.808C383.598 261.12 383.443 263.383 383.598 264.735C383.747 266.093 383.294 268.803 383.747 271.364C384.199 273.925 384.348 276.033 385.556 276.939C386.758 277.844 390.675 281.007 392.032 282.21C393.389 283.412 394.288 285.075 394.288 285.075C394.288 285.075 395.192 297.88 396.097 305.408C397.002 312.942 397.9 327.248 399.257 332.073C400.615 336.891 400.912 337.945 400.912 338.999C400.912 340.053 399.109 341.107 398.501 342.466C397.9 343.824 377.129 375.003 374.118 382.382C371.106 389.761 363.584 401.816 362.976 403.168C362.375 404.526 349.126 409.04 346.716 410.702C344.305 412.358 340.091 427.123 338.741 428.028C337.384 428.934 353.043 441.888 357.405 445.199C361.767 448.51 367.338 453.788 369.897 454.842C372.456 455.896 371.855 456.498 375.468 457.707C379.081 458.91 381.64 459.964 382.241 461.626C382.842 463.282 384.652 467.654 385.854 469.458C387.056 471.269 385.705 482.865 385.55 487.839C385.401 492.812 383.443 506.665 383.294 509.226C383.146 511.787 380.735 532.12 380.134 535.289C379.533 538.452 376.522 561.353 375.772 565.867C375.022 570.388 370.957 591.477 371.254 596.897C371.558 602.323 369.749 618.136 370.201 622.96C370.654 627.778 367.642 640.733 365.684 644.199C363.725 647.666 359.512 661.221 359.512 661.221C359.512 661.221 366.123 663.694 371.18 665.215H488.587C488.392 655.815 488.135 645.868 487.716 641.165ZM394.997 270.276C394.308 270.202 392.491 270.019 392.127 269.769C391.762 269.512 391.397 269.479 391.107 269.154C390.817 268.83 390.02 268.573 389.763 268.465C389.507 268.357 389.399 268.026 389.075 267.701C388.75 267.377 388.129 267.12 388.129 267.12L388.204 265.992C389.223 266.282 393.214 266.607 393.214 266.607C393.214 266.607 393.828 267.188 394.234 267.769C394.632 268.35 396.813 270.492 396.813 270.492C396.813 270.492 395.685 270.35 394.997 270.276ZM468.222 408.736C467.979 409.472 467.81 410.459 467.81 410.459C467.81 410.459 467.317 410.047 466.581 409.804C465.845 409.56 464.69 409.641 464.69 409.641C464.69 409.641 464.69 408.736 464.528 406.682C464.366 404.627 465.696 402.492 465.676 402.742C465.595 403.891 466.662 403.566 467.317 403.81C467.972 404.053 467.729 404.465 467.81 405.121C467.891 405.776 468.141 406.269 468.303 407.418C468.472 408.574 468.472 407.999 468.222 408.736Z" fill="#B8BABB"/>
<path d="M622.653 663.951C622.653 661.978 622.437 660.228 623.963 659.572C625.496 658.917 627.684 657.383 628.123 654.754C628.562 652.126 629.217 645.334 629.217 645.334L644.971 638.982C644.971 638.982 623.085 594.741 621.775 591.025C620.465 587.301 617.839 569.347 617.4 564.745C616.961 560.143 614.334 529.485 613.895 523.795C613.456 518.098 613.679 492.481 612.801 483.277C611.923 474.08 611.052 469.039 610.613 465.1C610.175 461.16 609.081 457.437 609.303 456.119C609.52 454.808 612.146 454.585 613.679 456.998C615.212 459.41 618.055 458.971 620.243 458.532C622.43 458.092 622.214 456.998 624.179 455.464C626.151 453.93 627.022 457.214 628.994 451.524C630.966 445.828 630.304 442.104 633.154 439.043C635.996 435.975 641.25 432.252 642.999 428.751C644.748 425.244 640.372 402.472 635.996 393.93C631.621 385.389 622.863 355.386 622.43 349.034C621.992 342.682 618.71 331.735 619.588 325.599C620.465 319.47 621.337 316.618 620.243 311.584C619.149 306.55 619.365 304.793 617.839 303.043C616.306 301.293 615.428 300.853 615.428 300.853C615.428 300.853 613.456 304.36 612.362 304.137C611.268 303.921 611.707 282.46 610.83 276.763C609.952 271.066 609.736 245.881 608.419 243.253C607.109 240.624 605.576 235.367 606.447 231.211C607.325 227.048 608.858 222.886 609.074 220.919C609.29 218.946 612.578 213.473 613.672 211.939C614.766 210.405 616.515 206.905 616.515 206.905C616.515 206.905 613.672 204.931 611.917 206.688L615.421 199.681C615.421 199.681 614.543 197.052 610.607 199.025C606.67 200.999 606.231 203.627 605.137 206.249C604.043 208.878 599.445 216.98 598.574 218.514C597.696 220.048 596.386 219.825 594.853 222.676C593.32 225.521 591.787 229.468 591.787 229.468C591.787 229.468 589.16 221.582 585.663 222.46C582.158 223.339 583.036 223.771 584.569 226.4C586.102 229.028 588.289 233.846 588.728 235.82C589.167 237.793 590.7 241.077 592.233 243.043C593.766 245.017 595.738 244.577 596.17 248.517C596.609 252.456 595.954 272.823 595.731 280.27C595.515 287.717 594.198 300.637 593.543 304.144C592.888 307.651 592.665 312.902 592.01 314.22C591.355 315.53 588.505 318.382 587.634 321.666C586.757 324.95 582.604 330.424 583.036 337.871C583.475 345.317 584.13 344.439 584.13 344.439C584.13 344.439 581.287 349.473 581.942 352.764C582.597 356.048 583.475 355.832 583.036 356.927C582.597 358.021 579.531 360.65 578.66 362.839C578.41 363.461 578.127 363.995 577.863 364.481C577.654 362.474 577.235 360.528 576.472 358.9C573.407 352.332 566.404 338.094 562.684 336.56C558.963 335.026 546.268 333.931 544.958 334.809C543.648 335.688 542.331 338.317 541.021 338.317C539.711 338.317 537.956 338.1 537.956 338.1L536.862 340.513C536.862 340.513 535.768 340.729 533.357 342.047L529.42 342.702L529.204 345.77C529.204 345.77 522.857 350.149 520.885 357.156C518.913 364.164 518.697 375.334 514.538 380.591C514.538 380.591 517.11 378.01 518.637 374.239C517.185 379.294 514.423 388.828 513.012 393.072L517.826 380.152C517.826 380.152 518.481 389.572 515.638 394.822C512.796 400.08 500.979 414.75 497.913 418.696C494.847 422.636 490.91 423.298 487.629 424.825L492.004 423.947C492.004 423.947 483.685 431.394 481.281 434.678C481.281 434.678 488.939 427.447 492.22 425.92C492.22 425.92 480.842 441.03 480.187 443.881C480.187 443.881 490.033 430.522 492.22 429.643C492.22 429.643 480.187 469.722 479.087 476.946C477.993 484.176 470.335 522.714 469.896 526.005C469.458 529.289 467.493 534.985 469.896 534.985C472.307 534.985 476.46 537.614 476.46 537.614L475.582 542.432C475.582 542.432 478.648 545.061 483.24 545.277C483.24 545.277 483.023 564.11 482.585 566.738C482.146 569.367 482.368 573.091 483.023 576.591C483.678 580.098 484.772 593.018 485.211 594.768C485.65 596.519 487.183 597.613 487.183 597.613C487.183 597.613 491.782 606.155 493.092 607.689C494.402 609.223 500.972 614.041 502.066 614.696C502.275 614.824 502.619 615.061 503.025 615.358C500.884 627.218 498.676 640.868 498.568 647.328C498.473 652.741 499.02 659.14 499.824 665.215H622.228C622.491 664.762 622.653 664.343 622.653 663.951ZM504.436 607.689C504.301 607.053 503.761 605.074 502.289 605.256C502.289 605.256 499.223 599.782 499.007 598.465C498.791 597.154 496.819 590.802 496.819 590.802C496.819 590.802 496.819 589.268 498.129 589.491C499.439 589.707 499.223 593.214 500.317 594.748C501.39 596.248 502.464 600.458 505.996 599.613C505.564 601.83 505.023 604.6 504.436 607.689ZM580.193 374.651C579.754 375.746 578.005 374.435 578.005 375.091C578.005 375.746 577.127 378.375 577.127 377.719C577.127 377.361 577.83 373.813 577.992 369.597C579.052 371.475 580.517 373.84 580.193 374.651Z" fill="#B8BABB"/>
<path d="M93.4195 616.196C93.7504 609.297 98.7811 570.428 98.7811 567.36C98.7811 564.292 103.042 562.758 103.042 562.758L110.166 560.346L112.171 567.319C112.171 567.319 109.889 577.368 114.913 580.564C116.02 581.267 119.174 583.382 122.672 585.132C126.176 586.882 142.038 584.896 135.907 568.691C132.625 560.008 130.498 557.102 129.228 556.278C128.297 556.366 127.675 556.406 127.675 556.406C127.675 556.406 128.128 555.568 129.228 556.278C131.72 556.035 136.467 555.372 137.743 553.778C139.492 551.588 144.746 548.96 144.746 548.96L144.307 541.513C144.307 541.513 149.561 540.634 151.748 539.323C153.936 538.012 124.61 464.424 121.983 456.106C119.356 447.78 119.795 433.333 118.046 426.758C116.297 420.19 118.046 410.993 115.419 407.925C112.793 404.857 110.166 396.539 106.229 395.221C102.292 393.91 97.0389 389.524 95.2899 388.653C93.541 387.774 88.2875 382.524 88.7264 381.206C89.1654 379.895 87.4164 379.456 87.4164 379.456L90.4821 368.941L94.4189 364.562C94.4189 364.562 103.17 358.866 101.86 353.615L99.6724 351.426C99.6724 351.426 100.55 346.608 101.86 343.979C103.17 341.351 102.299 334.343 102.299 334.343C102.299 334.343 102.022 333.627 101.131 332.931C100.233 332.228 99.7602 330.694 99.3145 330.356C98.8688 330.018 98.2813 329.572 98.3084 329.431C98.3354 329.289 98.673 328.201 98.673 328.201C98.673 328.201 97.2752 330.045 96.9376 330.072C96.6 330.1 97.6061 328.755 97.6399 328.647C97.6669 328.532 97.444 328.059 97.444 327.89C97.444 327.721 98.3084 325.788 97.9775 324.842C97.9775 324.842 96.9444 327.39 96.6607 327.471C96.3839 327.552 96.0192 327.025 96.0192 327.025C96.0192 327.025 96.9444 324.673 96.6607 323.781C96.6607 323.781 95.2089 325.768 94.8983 325.653C94.5877 325.538 96.2961 321.903 94.2838 320.646C94.2838 320.646 94.5944 324.984 93.6423 324.93C92.6902 324.876 91.4883 322.16 91.3464 321.714C91.2046 321.268 91.4275 320.261 90.84 319.416C90.2525 318.578 89.4422 317.848 88.6589 317.348C88.6589 317.348 91.0358 320.065 89.584 320.004C89.584 320.004 88.9425 318.267 88.0444 317.821C87.1531 317.375 86.255 317.287 86.0592 316.895C85.8633 316.504 85.2218 316.166 85.4987 315.186C85.7756 314.206 86.7547 313.564 86.7547 313.564C86.7547 313.564 85.1341 313.733 84.6276 315.078C84.1212 316.422 84.6276 314.936 84.6276 314.936L85.2961 313.51C85.2961 313.51 83.8713 314.152 83.4257 314.855C82.98 315.557 82.2777 315.389 82.2777 315.389C82.2777 315.389 82.7504 314.132 83.8983 313.821C83.8983 313.821 83.2839 313.483 80.7111 314.774C80.7111 314.774 80.6571 313.922 81.9536 313.564C81.9874 313.557 82.0211 313.551 82.0481 313.537C82.0549 313.537 82.0616 313.537 82.0684 313.53C82.0346 313.537 82.0144 313.544 82.0144 313.544C82.0144 313.544 80.3397 313.287 78.5773 314.74C78.5773 314.74 78.8542 313.456 80.7854 313.226C82.7166 313.003 80.6436 313.172 80.6436 313.172C80.6436 313.172 76.0586 313.929 74.6608 316.22C74.6608 316.22 73.182 318.288 73.182 318.375C73.182 318.456 74.1341 314.456 76.9567 313.645C76.9567 313.645 72.9592 313.956 71.6154 317.031L72.3987 314.598C72.3987 314.598 70.2176 317.314 69.9678 319.632C69.9678 319.632 69.2992 317.369 70.4404 315.936C70.4404 315.936 66.8616 318.565 67.2532 321.619C67.2532 321.619 66.5509 319.294 67.5368 317.544C66.8683 318.592 65.0721 321.565 64.9573 323.437L64.7345 324.106C64.7345 324.106 64.0322 320.828 65.1802 319.321C65.1802 319.321 61.7971 323.349 61.9052 325.592L61.6553 322.261C61.6553 322.261 60.4331 326.295 61.0881 328.099C61.0881 328.099 58.1305 329.41 58.2993 331.877C58.4613 334.343 56.9893 337.296 57.1513 340.749C57.3134 344.196 56.6584 346.993 56.6584 346.993C56.6584 346.993 55.6725 346.007 54.6866 348.142C53.7008 350.277 54.0316 354.217 54.0316 355.366C54.0316 356.514 55.6725 359.305 56.6584 359.474C57.6443 359.636 57.9684 360.623 58.4613 362.434C58.9543 364.238 60.2643 367.198 60.2643 367.198L60.4263 372.617L55.9967 379.848L44.6726 377.875C44.6726 377.875 30.7217 367.36 30.3908 366.705C30.06 366.049 29.7358 364.9 29.7358 364.9C29.7358 364.9 26.4541 362.603 26.1232 362.109C25.7923 361.616 10.8556 338.458 6.4259 336.161C1.99621 333.863 1.50327 328.444 0.186508 326.309C-1.12349 324.173 -6.05288 307.09 -6.70788 304.955C-7.36288 302.82 -6.70788 298.218 -6.70788 295.103C-6.70788 291.988 -8.01788 289.521 -7.85582 286.23C-7.69376 282.946 -6.21494 269.972 -6.21494 269.972C-6.21494 269.972 -9.33463 269.316 -10.6446 268.823C-10.6446 268.823 -10.1517 263.404 -9.00376 262.086C-7.85582 260.775 -3.25731 256.173 -2.60231 254.693C-1.94731 253.213 -0.468487 246.314 -0.468487 245.334C-0.468487 244.348 0.0244484 243.037 0.0244484 243.037C0.0244484 243.037 6.4259 241.888 7.08091 241.726C7.08091 241.726 8.55972 238.935 2.97533 239.921L0.510635 238.773C0.510635 238.773 8.71503 238.279 10.5247 237.948C12.3277 237.617 12.8206 235.651 10.5247 235.482C8.22884 235.32 3.29945 235.644 3.29945 235.644C3.29945 235.644 2.64445 233.346 1.16564 233.509C-0.313179 233.671 -2.77112 235.313 -4.412 235.313C-6.05288 235.313 -9.01051 235.313 -9.01051 235.313C-9.01051 235.313 2.80651 222.339 2.96858 219.71C2.96858 219.71 2.14476 216.588 -0.806114 220.203C-3.757 223.818 -5.40463 225.461 -5.40463 225.461C-5.40463 225.461 -2.93994 216.426 -4.58081 216.757C-6.22169 217.088 -10.8202 228.089 -11.7993 230.062C-12.7852 232.036 -14.757 234.333 -15.7361 234.664C-16.722 234.995 -18.5249 235.32 -19.0178 237.293C-19.5108 239.266 -19.6729 240.253 -19.8417 242.219C-20.0037 244.192 -20.1725 249.612 -20.8275 252.402C-21.4825 255.193 -21.4825 257.822 -22.6305 260.288C-23.7784 262.755 -25.2572 264.89 -25.0952 265.87C-24.9331 266.857 -26.574 265.539 -26.574 265.539C-26.574 265.539 -27.3978 272.6 -27.5599 273.918C-27.7219 275.229 -29.3628 280.162 -28.7078 284.433C-28.0528 288.703 -30.1866 293.305 -30.1866 297.083C-30.1866 300.86 -27.8907 318.274 -28.0528 323.856C-28.2149 329.437 -29.6937 336.999 -30.3487 341.263C-31.0037 345.534 -40.5248 396.12 -41.0178 403.188C-41.5107 410.25 -43.8066 413.04 -42.9895 414.851C-42.1657 416.656 -47.9122 426.839 -47.4192 429.637C-46.9263 432.427 -61.3701 451.315 -57.2645 452.139C-53.1589 452.963 -35.2713 450.659 -29.0319 450.497C-22.7925 450.335 -15.574 445.571 -11.6373 444.091C-7.70051 442.611 -1.46112 439.165 0.510635 439.658C2.48239 440.151 5.59533 446.064 5.10915 448.53C4.61621 450.997 0.841515 462.985 -0.96143 467.418C-2.76437 471.85 -6.53907 486.305 -7.85582 492.217C-9.16582 498.13 -9.16582 502.239 -10.3205 505.361C-11.4685 508.482 -17.8699 526.876 -19.1867 533.12C-20.4967 539.364 -24.6022 563.015 -25.5881 571.225C-26.574 579.436 -27.0669 585.517 -28.7078 589.295C-30.3487 593.072 -33.4684 612.128 -35.4401 619.021C-37.4119 625.92 -37.4119 631.008 -39.3769 634.786C-41.3487 638.563 -44.4616 646.611 -46.4334 649.733C-48.4051 652.855 -50.046 658.606 -50.046 658.606C-50.046 658.606 -47.0884 661.728 -46.4334 663.863C-46.2916 664.329 -46.0822 664.789 -45.8594 665.228H90.4416C91.7516 647.861 93.1967 620.899 93.4195 616.196Z" fill="#B8BABB"/>
<path d="M174.147 556.406C174.147 556.406 174.768 556.372 175.7 556.278C174.599 555.568 174.147 556.406 174.147 556.406Z" fill="#B8BABB"/>
<path d="M809.68 665.14C810.666 660.214 810.99 656.599 810.666 653.646C810.335 650.686 810.335 646.415 810.335 644.449C810.335 642.483 815.912 604.37 815.912 597.147C815.912 589.916 818.539 580.719 818.539 580.719L822.807 583.679L827.729 582.693C827.729 582.693 826.744 583.679 825.434 586.308C824.124 588.937 824.124 596.16 824.448 598.465C824.772 600.769 823.138 608.979 823.138 611.608C823.138 614.236 826.095 614.892 826.095 614.892C826.095 614.892 830.694 607.337 830.363 604.053C830.032 600.769 832.335 601.755 832.004 602.742C831.673 603.729 833.314 606.682 833.314 609.641C833.314 612.601 834.624 612.601 832.328 614.567C830.032 616.541 830.356 618.507 828.715 618.183C827.074 617.852 825.434 616.872 824.117 617.852C822.807 618.838 820.835 616.865 820.835 619.494C820.835 622.122 818.863 621.136 820.835 622.122C822.807 623.109 824.448 624.751 826.089 624.096C827.729 623.44 832.328 623.44 833.969 622.122C835.61 620.811 837.906 620.149 838.891 618.838C839.877 617.527 843.814 609.641 844.145 607.344C844.476 605.046 843.814 600.776 843.49 599.134C843.159 597.491 841.194 590.923 841.194 589.937C841.194 588.95 843.166 587.308 843.166 586.321C843.166 585.335 844.152 581.72 844.152 581.72L855.638 580.077C855.638 580.077 871.723 578.104 874.349 576.793C876.976 575.482 873.363 557.082 872.708 553.142L875.666 551.5C875.666 551.5 870.413 516.679 869.758 511.098C869.103 505.516 857.286 472.337 855.969 464.782C854.659 457.227 851.046 443.104 849.074 438.171C847.103 433.245 842.18 427.657 838.898 422.406C835.616 417.149 826.095 415.182 823.144 412.878C820.187 410.581 816.25 410.249 815.595 408.939C814.94 407.628 813.623 405.323 813.954 403.357C814.285 401.384 813.954 396.133 813.954 396.133L809.032 393.836C809.032 393.836 810.017 385.294 810.672 383.652C811.327 382.01 815.271 376.097 815.271 372.482C815.271 372.482 818.229 371.171 818.884 368.867C819.539 366.569 819.539 361.643 819.539 359.67C819.539 357.697 817.567 355.399 817.567 355.399C817.567 355.399 818.553 350.473 818.553 348.831C818.553 347.189 818.884 345.216 818.222 342.918C817.567 340.621 816.912 337.337 815.595 336.35C814.285 335.363 810.672 330.768 810.672 330.768C810.672 330.768 806.736 325.842 802.468 325.187C802.468 325.187 795.574 324.2 793.933 324.531C792.292 324.862 796.229 322.889 796.229 322.889C796.229 322.889 792.947 323.22 790.975 324.531C789.003 325.842 789.665 323.545 789.665 323.545C789.665 323.545 785.067 323.214 781.785 326.829C778.503 330.444 777.848 330.768 775.545 332.742C773.25 334.715 774.56 336.026 772.264 338.985C769.968 341.945 768.327 341.283 768.327 344.567C768.327 347.851 769.637 351.791 770.299 353.44C770.954 355.082 770.299 357.055 770.299 357.055C770.299 357.055 768.003 360.67 768.658 363.954C769.313 367.238 771.615 370.522 772.27 371.84C772.925 373.151 775.552 372.496 775.552 372.496C775.552 372.496 777.848 377.422 777.848 379.719C777.848 382.017 778.503 388.261 778.503 388.261C778.503 388.261 777.193 391.22 775.876 392.531C774.566 393.842 770.299 398.775 770.299 396.147C770.299 393.518 776.207 390.565 775.221 389.247C774.235 387.936 767.341 378.733 763.073 373.482C758.806 368.225 747.32 357.055 745.017 357.386C742.721 357.717 741.404 359.028 739.763 357.055C738.123 355.082 723.679 313.692 722.369 310.077C721.059 306.462 712.848 292.339 711.862 289.379C710.876 286.419 710.876 285.439 710.552 283.466C710.221 281.493 708.256 272.296 708.256 270.654C708.256 269.012 710.883 259.484 711.214 257.842C711.544 256.2 712.199 252.585 711.214 250.618C710.228 248.645 708.587 245.037 707.932 243.719C707.277 242.408 710.228 231.894 710.228 231.894L726.312 230.583C726.312 230.583 732.221 204.958 729.925 193.133C729.925 193.133 723.686 183.936 723.361 182.618C723.031 181.307 723.031 181.307 723.031 181.307C723.031 181.307 719.749 182.618 718.432 182.618C717.115 182.618 710.228 181.632 710.228 181.632L696.115 169.151C696.115 169.151 694.163 175.462 691.759 184.193C690.213 181.983 688.302 180.118 685.939 178.902C675.256 173.374 673.797 169.779 674.061 165.515C674.216 165.529 674.371 165.542 674.533 165.542C677.025 165.542 679.044 163.522 679.044 161.028C679.044 159.278 678.045 157.758 676.586 157.008C676.789 155.73 676.64 152.568 676.64 152.021C676.64 151.446 677.295 148.169 679.996 144.817C682.697 141.459 681.718 136.384 681.718 136.384C681.556 137.533 681.718 142.033 679.672 142.276C677.626 142.52 675.992 146.784 675.992 146.784C675.992 145.716 675.911 145.148 678.119 142.114C680.327 139.087 679.753 136.215 679.753 136.215C679.179 137.526 678.524 138.756 677.052 140.067C675.58 141.378 675.006 142.607 675.006 142.607C675.418 137.695 678.443 133.762 678.443 133.762C678.2 134.086 676.971 135.235 675.661 136.384C674.351 137.533 673.696 141.134 673.696 141.134L673.615 139.087C674.925 134.499 673.203 133.025 673.203 133.025C673.284 134.093 674.351 135.647 672.71 137.857C671.076 140.067 671.157 145.392 671.157 145.392C669.928 142.932 670.502 139.904 670.502 139.904C669.685 141.378 669.928 145.06 670.826 146.452C671.724 147.844 671.974 151.527 671.805 154.805C671.758 155.73 671.859 156.555 672.021 157.271C670.813 158.082 670.016 159.461 670.016 161.028C670.016 162.995 671.272 164.664 673.028 165.285C672.906 168.103 673.851 172.773 680.354 176.28C685.277 178.935 688.673 181.084 691.368 185.605C687.606 199.417 682.974 218.48 682.974 228.623L696.533 241.266L696.128 242.489C696.128 242.489 693.826 242.084 693.42 244.523C693.015 246.963 691.658 246.557 692.063 249.537C692.468 252.517 691.388 259.572 692.603 262.957C693.826 266.35 695.446 270.823 695.851 272.857C696.257 274.891 696.797 288.582 696.797 288.582L695.575 289.94C695.575 289.94 695.439 298.887 696.385 302.955C697.33 307.023 699.228 332.647 700.315 337.391C701.402 342.134 705.325 381.584 707.223 387.822C709.12 394.059 706.683 422.122 707.628 429.981C708.573 437.847 704.92 443.401 707.088 448.01C709.255 452.619 709.525 454.382 710.336 458.045C711.146 461.707 713.584 468.755 714.671 470.114C715.751 471.472 719.276 475.675 720.768 475.533C722.261 475.398 722.936 474.587 722.936 474.587C722.936 474.587 721.991 478.655 721.444 484.622C720.897 490.589 716.703 507.394 716.028 509.158C715.353 510.922 712.638 521.632 712.233 524.072C711.828 526.511 711.011 529.768 710.606 530.579C710.201 531.39 704.913 548.203 703.563 551.46C702.206 554.71 696.925 586.977 697.06 597.147C697.06 597.147 680.334 631.698 678.362 654.369C677.998 658.558 677.93 662.167 678.072 665.262H809.66C809.673 665.174 809.673 665.161 809.68 665.14Z" fill="#B8BABB"/>
<path d="M361.396 127.829C359.654 126.288 358.715 125.396 358.715 125.396C358.992 125.869 359.965 126.727 361.396 127.829Z" fill="#B8BABB"/>
<path d="M440.597 213.02C440.577 213.006 440.55 213 440.523 212.993C440.57 213.006 440.597 213.02 440.597 213.02Z" fill="#B8BABB"/>
<path d="M439.159 209.053C439.402 205.566 437.079 203.965 435.877 203.168C434.675 202.363 428.558 197.721 428.078 196.883C427.727 196.261 424.411 194.802 422.635 193.66C422.912 193.025 423.074 192.329 423.074 191.592C423.074 189.281 421.548 187.328 419.448 186.693C419.455 186.193 419.435 185.673 419.374 185.112C418.631 178.638 413.189 169.968 407.233 165.779C400.96 161.359 401.864 157.649 402.27 156.649C403.944 157.575 405.653 158.481 407.388 159.373C435.634 173.861 450.591 177.902 450.591 177.902L428.274 166.968L427.085 159.366L438.72 137.749L427.085 130.147L422.338 134.188L422.575 128.011C422.575 128.011 410.94 117.558 398.833 119.7C398.833 119.7 386.962 138.229 387.677 145.358C387.677 145.358 368.642 133.431 361.396 127.836C367.129 132.904 381.634 145.02 400.534 155.683C400.014 156.832 398.853 161.048 406.504 166.434C412.527 170.678 417.341 180.327 417.949 185.571C417.99 185.896 417.983 186.193 417.963 186.477C417.956 186.477 417.956 186.477 417.956 186.477C415.127 186.477 412.831 188.767 412.831 191.599C412.831 193.342 413.702 194.883 415.032 195.809C415.302 196.998 415.842 198.336 416.869 199.654C419.867 203.499 425.154 208.182 428.071 211.547C430.995 214.912 429.03 217.433 428.152 219.196C428.152 219.196 429.476 218.115 429.915 216.115C430.354 214.115 429.672 211.067 429.557 211.067C429.557 211.067 431.961 213.75 431.157 217.635C430.36 221.521 431.198 220.156 432.116 221.798C432.116 221.798 431.036 219.717 431.637 218.237C432.238 216.757 432.359 213.392 431.718 211.668C431.076 209.945 430.198 207.465 430.158 207.344C430.117 207.222 436.08 210.466 436.64 214.392C437.201 218.318 438.403 218.757 439.044 219.237C439.044 219.237 436.64 213.669 436.681 211.189C436.721 208.709 436.201 207.425 434.723 205.945C434.723 205.945 438.085 206.546 438.484 209.83C438.862 212.939 440.064 212.851 440.53 213.006C440.206 212.851 438.95 212.094 439.159 209.053Z" fill="#B8BABB"/>
<path d="M77.7805 122.964L72.7499 120.119L69.4681 91.2104C69.4681 91.2104 34.017 125.376 29.8574 128.876C29.8574 128.876 31.6063 151.433 35.7659 164.353L45.6855 153.244C46.5971 155.399 47.6707 157.406 48.893 159.075C52.3638 163.806 52.0869 169.313 51.3442 172.894C51.2901 172.894 51.2429 172.888 51.1888 172.888C48.9537 172.888 47.1373 174.631 47.1373 176.773C47.1373 177.408 47.2994 178.01 47.583 178.544C47.0968 179.422 46.5903 180.888 46.5903 183.2C46.5903 187.619 45.9353 190.545 44.0716 192.755C42.2147 194.964 42.9777 198.431 42.9777 197.458C42.9777 197.383 42.6468 194.89 44.1797 193.606C44.1797 193.606 43.7407 196.099 44.1797 198.742C44.6186 201.377 44.2877 202.161 43.3018 203.093C43.3018 203.093 45.7057 202.026 45.0507 199.458C44.3957 196.89 45.9286 195.322 45.9286 195.322C45.9286 195.322 45.5977 198.674 46.9145 201.384C48.2245 204.094 48.8862 205.519 48.8862 205.519C48.8862 205.519 47.7923 200.668 47.4614 198.958C47.1305 197.248 47.1305 195.322 47.1305 195.322C47.1305 195.322 49.5345 197.89 49.8653 200.742C50.1962 203.593 50.4123 204.377 52.0532 205.377C52.0532 205.377 50.6284 201.742 50.9593 200.1C51.2901 198.458 49.9734 196.322 49.8653 195.822C49.7573 195.322 52.4921 196.89 53.1471 200.316L54.5719 203.593C54.5719 203.593 53.586 199.884 53.478 198.316C53.3699 196.748 52.4921 195.532 52.168 194.964C51.8371 194.397 51.9519 192.329 52.168 190.903C52.3841 189.477 54.1397 186.267 54.0249 184.983C53.9372 183.936 53.9169 181.226 53.8561 179.686C54.6934 178.976 55.2269 177.935 55.2269 176.773C55.2269 175.239 54.3018 173.922 52.958 173.286C53.6603 169.387 52.8702 163.542 46.6916 153.082C46.5701 152.879 46.4688 152.676 46.3607 152.473L48.6634 149.892L61.1354 156.021C61.1354 156.021 67.26 154.71 70.9807 150.548C74.7013 146.385 79.2999 138.283 79.516 133.465C79.7523 128.653 77.7805 122.964 77.7805 122.964Z" fill="#B8BABB"/>
<path d="M259.094 212.013L260.188 207.634C260.188 207.634 248.587 198.214 239.397 196.464C230.207 194.714 223.204 192.085 223.204 192.085C223.204 192.085 215.081 215.196 209.361 234.286C209.307 234.299 209.253 234.306 209.199 234.319C195.728 236.826 186.801 238.678 182.344 241.401C181.662 240.908 180.825 240.611 179.92 240.611C178.509 240.611 177.26 241.32 176.517 242.401C174.14 242.962 164.173 246.199 171.642 259.788C180.076 275.128 184.674 270.985 190.961 269.147C197.247 267.309 199.854 270.066 200.772 271.141C200.772 271.141 199.084 265.769 190.042 267.918C190.042 267.918 196.943 265.465 199.091 264.235C201.056 263.113 205.317 264.809 206.498 265.931C205.242 264.525 199.516 258.734 193.567 262.701C193.108 263.005 189.428 261.626 187.895 261.322C187.895 261.322 195.87 259.633 198.78 259.329C201.691 259.025 200.928 255.491 200.617 253.653C200.617 253.653 199.543 258.565 194.175 259.025C188.807 259.484 189.117 258.254 188.347 257.491C187.578 256.727 185.586 256.572 183.594 255.957C181.602 255.342 179.299 253.963 180.069 252.429C180.744 251.071 183.58 249.591 182.952 247.571C183.634 246.834 184.06 245.848 184.06 244.76C184.06 243.793 183.729 242.908 183.168 242.199C184.512 241.428 186.335 240.557 188.658 239.847C192.966 238.529 202.872 235.907 209.274 234.597C205.891 245.915 203.379 255.761 203.953 258.444C203.953 258.444 217.958 267.424 220.368 268.958C222.779 270.492 247.723 277.716 247.723 277.716L251.005 260.633C251.005 260.633 262.606 258.444 265.232 255.599C267.859 252.754 278.582 233.042 280.115 228.664C281.648 224.285 281.648 224.285 281.648 224.285L259.094 212.013Z" fill="#B8BABB"/>
<path d="M598.682 53.1727V50.6184L614.523 33.7383L574.291 63.2751C572.576 59.4842 570.969 53.7538 569.801 48.3141C568.91 44.1515 571.644 40.766 574.096 38.6645C574.676 39.401 575.568 39.8808 576.581 39.8808C577.776 39.8808 578.809 39.2118 579.349 38.232C580.76 37.4954 580.76 33.7924 581.496 32.7855C582.293 31.6975 583.232 30.6164 585.042 28.008C586.851 25.4064 590.896 22.6561 590.896 22.6561C589.086 22.5142 585.258 25.4807 585.399 25.1901C585.541 24.8996 587.641 22.8048 588.796 22.3655C589.951 21.933 590.531 21.4938 590.457 20.4126C590.383 19.3247 589.951 17.8786 589.951 17.8786C589.951 17.8786 587.851 19.1828 588.074 18.9665C588.29 18.7503 589.228 17.6623 589.228 17.6623L587.567 16.4325L587.351 17.0136C587.351 17.0136 585.825 18.98 584.866 20.3113C585.359 19.399 585.946 18.2097 586.196 17.6623C586.628 16.7231 586.561 16 586.561 16C586.561 16 584.9 18.9665 583.887 20.4126C582.874 21.8587 581.429 21.933 579.329 24.2508C577.229 26.5686 578.242 28.0147 578.532 30.1095C578.728 31.5489 577.783 32.8733 577.161 33.5694C576.972 33.5356 576.783 33.5085 576.581 33.5085C574.825 33.5085 573.4 34.9344 573.4 36.6913C573.4 36.9481 573.441 37.1913 573.495 37.4346C572.252 37.9685 570.902 39.0632 569.544 41.658C565.81 49.321 570.949 58.8963 573.981 63.4913L567.498 68.2486L534.276 98.9341L555.999 86.9126C557.788 95.8662 571.334 114.53 571.334 114.53L575.676 110.435C575.676 110.435 575.676 101.995 575.932 101.232C576.189 100.461 579.511 107.111 579.511 107.111C579.511 107.111 584.366 102.252 585.643 99.9477C586.919 97.6434 615.03 69.0054 615.03 69.0054L598.682 53.1727Z" fill="#B8BABB"/>
<path d="M984.916 161.677L975.82 169.664C975.82 169.664 980.979 159.346 981.722 158.19C980.297 158.616 961.397 152.899 954.529 155.906C947.432 159.015 941.443 163.67 941.443 163.67C941.443 163.67 915.715 149.912 914.608 151.02C914.264 151.365 915.979 167.374 917.653 182.314C912.407 177.638 908.558 171.766 909.172 164.772C909.827 157.291 909.672 153.088 909.165 150.656C909.969 149.946 910.482 148.905 910.482 147.743C910.482 146.75 910.104 145.838 909.49 145.155C909.712 142.959 908.733 139.756 908.078 134.769C907.315 128.964 911.252 120.97 911.252 120.97C908.409 122.173 906.221 135.641 905.89 133.998C905.56 132.356 906.654 127.869 907.531 125.457C908.409 123.045 909.388 118.889 908.956 118.781C908.517 118.673 904.797 118.997 904.797 118.997V121.734L903.595 118.889C903.595 118.889 901.299 118.45 902.285 119.544C903.27 120.639 902.501 124.579 902.501 124.579C902.501 121.403 899.658 117.463 900.752 119.652C900.806 119.767 900.86 119.896 900.914 120.031C901.825 122.592 901.555 129.451 900.205 136.404C899.091 142.148 901.663 145.601 902.832 146.831C902.764 147.121 902.724 147.426 902.724 147.736C902.724 149.885 904.466 151.622 906.606 151.622C907.329 151.622 907.997 151.419 908.578 151.081C908.727 151.912 908.747 152.831 908.524 153.811C907.538 158.082 906.336 174.834 911.151 178.01C912.474 178.881 914.851 180.821 917.755 183.112C919.207 195.985 920.604 207.83 920.604 207.83C920.604 207.83 966.954 232.461 972.275 233.353L970.499 204.506C970.499 204.506 972.937 201.174 973.605 200.512C974.274 199.843 985.139 178.76 985.801 177.652C986.469 176.543 984.916 161.677 984.916 161.677Z" fill="#B8BABB"/>
<path d="M981.722 158.19C981.769 158.176 981.803 158.156 981.809 158.129C981.83 158.048 981.796 158.075 981.722 158.19Z" fill="#B8BABB"/>
<path d="M1044.54 662.843C1041.48 656.274 1037.76 634.813 1037.32 625.832C1036.88 616.852 1035.34 587.288 1033.38 581.375C1031.41 575.462 1028.78 565.61 1028.78 565.61L1030.75 558.819C1030.75 558.819 1047.38 565.387 1048.92 565.826C1050.45 566.265 1052.64 568.016 1052.64 568.016L1053.08 570.428C1053.08 570.428 1059.2 571.306 1060.3 571.306C1061.39 571.306 1062.04 572.401 1062.71 572.185C1063.36 571.969 1072.34 570.874 1072.34 570.874V568.029C1072.34 568.029 1075.18 568.468 1075.4 566.056C1075.62 563.643 1073.21 554.447 1072.34 552.257C1071.46 550.068 1060.73 525.761 1058.11 514.591C1055.48 503.421 1039.29 449.112 1037.97 442.104C1036.66 435.097 1036.66 434.218 1036.66 434.218C1036.66 434.218 1032.29 422.832 1029.87 419.764C1027.46 416.696 1017.4 406.188 1017.4 406.188C1017.4 406.188 1018.5 393.707 1016.96 388.889C1015.43 384.071 1013.24 377.942 1013.24 377.28C1013.24 376.624 1015.43 372.246 1015.22 371.367C1015 370.489 1011.93 365.238 1010.62 363.042C1009.31 360.853 1007.11 358.44 1005.36 357.345C1003.61 356.251 1001.2 353.183 1000.11 351.649C999.016 350.115 993.985 348.365 992.452 347.709C990.919 347.054 991.797 342.452 989.825 342.013C987.854 341.574 979.757 341.574 979.102 341.357C978.447 341.141 974.504 336.323 969.034 338.945C963.565 341.574 965.313 337.85 962.248 340.695C959.182 343.54 951.086 348.142 950.208 349.453C949.33 350.764 944.299 353.392 942.55 357.116C940.802 360.839 939.708 368.725 939.708 371.57C939.708 374.415 939.924 380.111 939.924 382.301C939.924 384.49 940.14 385.585 941.673 387.558C943.205 389.531 939.924 392.376 941.673 393.255C943.422 394.133 945.609 395.883 946.487 397.417C947.365 398.951 946.926 401.14 948.891 401.357C950.863 401.573 953.922 404.425 955.239 405.08C956.549 405.736 959.398 408.587 959.837 409.898C960.276 411.209 961.809 414.716 961.809 414.716L958.304 416.25C958.304 416.25 957.21 414.5 954.368 413.838C951.525 413.182 949.114 412.527 947.581 411.209C946.048 409.898 945.393 409.236 943.422 408.58C941.45 407.925 940.356 405.952 940.356 405.952L939.701 402.445C939.701 402.445 937.074 404.418 935.541 403.323C934.008 402.228 933.792 400.917 932.915 400.255C932.037 399.6 931.382 397.843 929.41 397.41C927.438 396.971 926.344 398.289 926.344 398.289L923.718 397.41L920.875 395.66C920.875 395.66 918.903 392.592 918.903 391.937C918.903 391.281 918.025 385.585 916.931 385.146C915.837 384.706 913.866 383.835 913.866 382.078C913.866 380.328 913.21 375.726 912.555 375.07C911.9 374.415 911.462 372.881 910.584 371.563C909.706 370.252 907.741 366.529 906.424 364.556C905.114 362.582 900.955 358.643 900.955 358.643L899.645 356.893C899.645 356.893 894.83 340.905 893.297 331.708C891.764 322.511 891.109 308.935 891.109 307.834C891.109 306.739 892.858 307.834 892.642 306.084C892.426 304.333 891.332 304.11 891.764 302.576C892.203 301.042 893.297 297.758 894.391 296.664C895.485 295.569 897.896 290.967 898.767 289.656C899.645 288.345 900.955 280.236 902.271 278.486C903.581 276.736 905.992 275.418 905.992 274.763C905.992 274.107 903.804 272.573 901.616 274.107C899.428 275.641 896.147 279.581 896.147 279.581C896.147 279.581 893.959 264.248 890.677 264.248C887.328 264.248 889.583 269.505 890.461 271.695C891.339 273.884 891.339 278.702 891.339 278.702L891.123 280.013L889.813 278.702C889.813 278.702 888.719 272.134 886.97 272.134C885.221 272.134 883.249 272.79 882.81 274.763C882.81 274.763 879.529 274.324 878.874 276.513C878.219 278.702 878.219 278.702 878.219 278.702C878.219 278.702 875.808 278.702 874.937 280.013C874.059 281.324 873.404 284.615 873.843 285.487C874.282 286.365 874.059 291.616 874.282 293.812C874.498 296.001 874.937 300.164 874.937 300.164L876.031 302.353C876.031 302.353 873.843 302.793 874.498 304.543C875.153 306.293 876.47 305.854 876.47 305.854C876.47 305.854 877.347 310.016 877.125 312.206C876.909 314.395 875.153 334.323 875.592 338.269C876.031 342.209 875.808 356.23 876.686 359.292C876.686 359.292 862.458 373.09 862.897 375.496C863.336 377.908 864.869 385.571 866.402 389.072C867.934 392.572 870.338 432.873 872.094 440.32C873.843 447.767 879.312 463.971 881.723 469.668C884.127 475.364 891.791 504.273 897.045 507.773C902.298 511.28 905.364 511.712 906.458 511.28C907.552 510.841 911.056 515.22 911.056 515.22C911.056 515.22 909.524 547.196 908.646 553.325C907.768 559.454 903.831 606.54 903.392 611.358C902.953 616.176 900.549 649.679 900.549 653.186C900.549 654.977 900.894 660.106 901.258 665.174H1045.43C1045.16 664.329 1044.87 663.539 1044.54 662.843Z" fill="#B8BABB"/>
<path d="M1123.32 665.167C1124.84 665.167 1132.91 661.633 1132.91 661.633C1132.91 661.633 1127.11 638.401 1115 611.892C1102.88 585.382 1086.74 549.527 1063.02 523.268C1063.02 523.268 1065.8 517.463 1065.8 515.186C1065.8 512.916 1067.57 507.104 1067.31 506.097C1067.06 505.09 1059.24 497.008 1057.72 497.008C1056.21 497.008 1048.39 493.981 1046.11 493.724C1043.85 493.474 1043.09 492.211 1041.32 492.461C1039.55 492.711 1036.78 492.211 1036.78 492.211C1036.78 492.211 1037.28 478.831 1036.02 473.776C1034.76 468.729 1031.98 466.201 1033.24 464.938C1034.51 463.674 1036.02 459.633 1036.02 457.613C1036.02 455.592 1037.53 453.322 1035.51 451.808C1033.49 450.294 1031.48 446.76 1029.46 446.253C1027.44 445.747 1028.45 444.483 1026.68 442.212C1024.91 439.942 1023.91 436.908 1022.64 436.408C1021.38 435.901 1019.87 435.901 1019.11 433.88C1018.35 431.86 1016.59 426.555 1016.59 426.555L1040.43 425.846V430.387C1038.8 430.772 1037.59 432.225 1037.59 433.968C1037.59 435.09 1038.1 436.083 1038.89 436.759C1038.5 438.611 1037.97 441.679 1037.97 444.665C1037.97 449.402 1037.97 469.283 1037.97 469.283C1037.97 469.283 1039.42 478.507 1039.04 480.791C1039.34 479.811 1040.01 477.283 1039.86 475.337C1039.67 472.878 1040.43 470.222 1040.43 470.222L1041.56 482.338L1042.13 480.257L1043.64 482.716L1044.78 479.878L1045.72 482.527C1045.72 482.527 1044.97 473.439 1044.78 470.215C1044.78 470.215 1047.05 479.115 1048.94 480.25C1048.94 480.25 1045.35 468.323 1044.78 464.154C1044.21 459.984 1044.4 454.119 1044.21 452.416C1044.02 450.713 1045.53 443.327 1044.97 441.814C1044.6 440.827 1044.07 438.32 1043.74 436.685C1044.49 436.009 1044.97 435.043 1044.97 433.955C1044.97 431.914 1043.31 430.265 1041.28 430.265C1041.25 430.265 1041.22 430.272 1041.19 430.272V425.805L1042.07 425.778L1044.85 425.528C1044.85 425.528 1020.87 395.485 1019.62 395.485C1018.35 395.485 940.14 394.221 940.14 394.221L961.336 423.008L957.048 434.367C957.048 434.367 953.766 440.678 955.029 442.949L948.216 442.442L946.197 439.158L939.383 438.651C939.383 438.651 938.627 439.158 937.871 438.901C937.115 438.651 931.314 436.124 930.301 435.874C929.295 435.624 926.263 433.097 925.257 432.34C924.251 431.583 923.238 425.778 922.232 423.251C921.226 420.724 917.944 414.919 914.912 415.676C914.912 415.676 912.643 412.649 914.406 409.364C916.175 406.08 915.668 400.276 915.668 400.276L919.956 399.269C919.956 399.269 922.981 389.423 921.725 382.855C920.463 376.293 918.7 377.807 917.687 377.807C916.681 377.807 918.194 372.253 918.194 372.253L916.681 368.468C916.681 368.468 914.912 364.427 915.925 364.427C916.931 364.427 915.925 362.407 915.925 362.407L930.396 355.906V360.454C928.728 360.495 927.384 361.853 927.384 363.535C927.384 364.569 927.897 365.482 928.681 366.042C928.059 367.313 926.992 369.691 927.101 370.82C927.242 372.401 928.822 380.571 928.107 385.666C927.391 390.761 928.681 396.12 928.681 396.12V391.727L930.112 396.296L930.686 395.154L931.544 396.12L932.259 395.768L934.123 396.296L934.265 394.012V391.815C934.265 391.815 935.271 396.12 937.277 396.471C937.277 396.471 933.981 388.653 934.123 386.545C934.265 384.436 934.981 379.165 934.697 377.496C934.414 375.827 934.123 371.435 934.123 370.293C934.123 369.218 933.239 366.218 932.773 365.563C933.245 365.022 933.549 364.319 933.549 363.535C933.549 362.002 932.428 360.745 930.97 360.501V355.656L940.653 351.304C940.653 351.304 902.555 315.706 894.735 313.179C894.735 313.179 838.723 337.418 828.128 347.52C828.128 347.52 852.599 369.489 857.394 373.023C857.394 373.023 856.637 376.807 856.887 378.577C857.137 380.348 858.906 378.828 858.15 381.355C857.394 383.882 855.881 384.639 856.131 385.903C856.381 387.166 856.381 387.923 856.637 388.93C856.887 389.937 857.394 391.957 856.887 394.235C856.381 396.505 860.169 404.587 861.681 407.114C863.194 409.641 865.719 408.628 865.719 408.628C865.719 408.628 869.501 417.467 870.764 419.23C872.026 421.001 874.295 421.251 874.545 423.271C874.795 425.292 874.795 425.542 874.545 428.319C874.295 431.096 873.539 432.867 873.539 432.867C873.539 432.867 863.7 435.137 861.931 435.894C860.162 436.651 859.912 437.665 855.375 438.421C850.83 439.178 848.055 439.685 845.536 440.192C843.01 440.699 837.966 442.462 836.204 442.719C834.435 442.969 831.659 441.712 829.391 443.476C827.122 445.246 822.327 446.253 820.308 450.294C818.289 454.335 816.527 455.849 816.527 455.849C816.527 455.849 810.22 439.435 809.714 431.86C809.7 431.664 809.673 431.468 809.646 431.272C809.896 430.292 809.963 428.583 809.963 428.583L811.665 433.32V428.583C811.665 428.583 812.043 430.096 815.068 431.421C815.068 431.421 812.232 426.495 810.524 421.386C808.815 416.277 808.633 414.946 808.633 414.946C808.633 414.946 812.604 423.467 814.879 425.17C814.879 425.17 807.688 410.398 807.31 406.803C806.931 403.208 803.906 397.336 803.717 394.876C803.629 393.768 803.353 392.694 803.076 391.856C803.467 391.396 803.717 390.802 803.717 390.146C803.717 388.93 802.887 387.91 801.766 387.599C800.962 384.429 799.531 379.206 798.383 377.158C802.238 375.489 806.195 373.915 808.323 373.435C805.689 373.861 797.869 375.104 795.574 375.314C792.798 375.564 779.928 378.341 776.653 378.848C773.371 379.355 763.782 382.889 761.763 382.632C759.744 382.382 755.706 383.139 752.681 383.896C749.656 384.652 733.004 390.457 730.229 390.964C727.453 391.471 722.153 392.478 720.134 393.491C718.115 394.498 712.058 397.532 712.058 397.532L734.767 391.978C734.767 391.978 736.279 395.512 736.279 396.525C736.279 397.532 737.542 401.573 737.542 404.35C737.542 407.128 738.048 414.453 738.548 416.466C739.054 418.487 739.054 418.487 739.054 418.487C739.054 418.487 734.26 428.839 735.016 433.38C735.773 437.928 735.523 444.24 743.342 449.037C743.342 449.037 746.874 456.863 746.624 457.619C746.374 458.376 744.355 458.626 744.355 458.626C744.355 458.626 741.33 453.828 736.786 453.828C732.241 453.828 725.178 454.585 722.403 455.342C719.627 456.099 716.346 457.869 715.083 458.876C713.82 459.883 712.557 461.403 712.557 461.403L711.551 462.41C711.551 462.41 707.77 456.606 705.244 455.592C702.719 454.585 698.181 452.565 695.656 452.058C693.13 451.551 690.355 449.787 688.592 448.524C686.823 447.26 684.554 446.503 682.285 446.253C680.017 446.003 679.51 445.496 677.741 444.483C675.972 443.476 673.703 442.212 672.44 441.456C671.177 440.699 671.177 437.165 671.177 436.151C671.177 435.144 668.909 432.367 668.909 432.367C668.909 432.367 668.659 425.805 669.665 423.785C670.671 421.764 673.703 414.189 673.446 408.635C673.446 408.635 675.715 408.885 676.471 406.864C677.228 404.844 677.984 400.046 677.984 398.282C677.984 396.519 677.734 392.978 676.978 391.971C676.222 390.964 674.452 389.443 674.203 388.437C673.953 387.43 674.709 384.396 674.203 382.632C673.696 380.862 673.196 377.584 672.433 376.321C671.677 375.057 671.427 355.616 671.427 355.616C671.427 355.616 679.058 355.17 684.662 354.94V357.325C683.184 357.488 682.022 358.805 682.022 360.434C682.022 361.265 682.333 362.022 682.826 362.583C682.556 364.15 682.312 366.779 682.461 370.955C682.731 378.307 683.001 386.328 682.927 390.261C682.92 390.613 682.913 390.923 682.9 391.207C682.751 394.66 682.312 398.742 682.312 398.742C682.312 398.742 683.487 390.734 683.487 388.383C683.487 386.031 684.075 399.526 684.075 399.526L685.54 400.309L686.715 394.971L686.864 399.992L688.329 400.62L687.89 389.944L689.794 400.931L690.672 400.458L691.55 400.931L690.085 392.457C690.085 392.457 693.461 398.269 695.075 398.269C695.075 398.269 690.969 394.032 689.207 386.497C687.444 378.963 688.032 371.428 687.742 369.698C687.512 368.333 688.012 363.927 687.647 361.677C687.802 361.299 687.89 360.873 687.89 360.434C687.89 358.913 686.884 357.65 685.54 357.359V354.906C687.931 354.818 689.821 354.778 690.348 354.859C692.117 355.109 690.098 353.595 690.098 353.595C690.098 353.595 674.925 344.838 674.203 344.506C670.921 342.993 666.127 345.513 664.864 345.513C663.601 345.513 612.383 349.804 609.864 350.061C607.339 350.311 597.5 350.311 595.481 350.568C593.462 350.818 593.462 350.818 593.462 350.818C593.462 350.818 599.769 357.129 603.051 358.9C606.332 360.67 615.921 368.745 615.921 368.745L617.184 368.495C617.184 368.495 618.19 389.2 618.953 391.978C619.709 394.755 621.978 398.039 621.978 398.039L618.447 400.059C618.447 400.059 618.447 404.35 619.203 405.864C619.959 407.378 621.222 410.662 621.472 412.426C621.722 414.196 623.491 416.717 624.497 416.717C625.503 416.717 627.022 416.21 627.022 416.21C627.022 416.21 628.792 420.501 629.548 422.014C630.304 423.528 629.798 426.305 629.798 427.062C629.798 427.819 625.003 432.867 624.247 434.13C623.491 435.394 622.734 437.158 622.734 437.158C622.734 437.158 610.877 439.685 609.108 440.185C607.339 440.692 597 443.212 595.987 443.212C594.981 443.212 591.193 443.719 589.681 443.969C588.168 444.219 585.393 445.483 583.374 445.99C581.355 446.497 578.829 447.76 577.067 449.017C575.298 450.281 571.766 450.531 570.003 452.551C568.234 454.572 566.222 456.842 564.703 458.613C563.19 460.383 567.984 450.788 567.478 445.99C566.972 441.192 566.972 435.887 566.472 433.11C565.965 430.333 562.434 420.987 562.184 418.974C561.934 416.953 562.94 415.946 563.19 412.662C563.44 409.378 562.184 406.857 562.94 404.58C563.697 402.31 565.209 402.053 565.209 402.053C565.209 402.053 572.475 399.35 579.768 397.215V399.803C578.478 400.032 577.499 401.114 577.499 402.418C577.499 402.931 577.654 403.404 577.917 403.81C577.546 405.222 577.06 407.256 576.837 409.135C576.439 412.432 575.784 418.514 575.649 419.778C575.588 420.366 575.412 422.001 575.216 423.69C574.987 425.636 574.737 427.664 574.595 428.272L575.649 423.582C575.649 423.582 574.46 434.732 574.069 436.766C573.67 438.793 573.542 443.233 573.542 443.233C573.542 443.233 575.257 441.334 575.257 441.841C575.257 442.347 576.31 443.868 576.31 443.868L577.627 440.827C577.627 440.827 578.816 442.854 578.816 443.361C578.816 443.868 579.606 434.745 579.606 434.745C579.606 434.745 580.922 439.685 581.983 441.591C581.983 441.591 579.741 432.975 580.132 427.393C580.531 421.818 581.712 415.48 581.449 413.831C581.186 412.182 580.922 406.743 581.051 404.965C582.192 404.634 583.029 403.634 583.029 402.425C583.029 400.992 581.854 399.836 580.382 399.776V397.046C585.487 395.579 590.498 394.437 592.949 394.741C592.949 394.741 580.078 387.166 575.034 385.146C569.99 383.125 547.031 371.259 543.999 371.009C540.974 370.759 524.322 372.273 519.271 373.536C514.227 374.8 495.05 378.084 492.274 379.598C489.499 381.112 480.667 384.646 480.667 384.646C480.667 384.646 487.987 388.43 489.749 389.193C491.518 389.95 495.3 393.234 499.338 394.748C503.376 396.262 510.189 400.809 510.189 400.809V413.939C510.189 413.939 507.92 422.021 507.164 423.535C506.408 425.048 506.408 427.826 506.158 430.603C505.908 433.38 507.42 441.206 508.683 443.983C509.946 446.76 511.708 451.808 513.228 453.578C514.74 455.349 517.266 458.626 517.516 459.383C517.766 460.14 518.022 470.242 518.022 470.242C518.022 470.242 504.679 470.56 500.796 471.019C500.796 471.019 498.514 470.222 498.399 469.188C498.284 468.161 498.629 467.134 497.717 465.647C496.805 464.161 492.808 460.16 490.755 459.707C488.702 459.248 481.281 457.653 480.478 457.876C479.681 458.106 478.648 459.593 477.966 459.816C477.284 460.045 474.542 460.728 473.401 460.843C472.26 460.958 471.571 461.985 471.571 461.985C471.571 461.985 465.865 451.93 464.494 451.017C463.124 450.105 461.753 449.416 461.071 448.848C460.389 448.274 459.018 447.362 457.877 447.132C456.736 446.902 451.941 444.388 450.57 443.936C449.2 443.476 445.547 442.334 444.865 441.537C444.183 440.739 443.264 439.82 442.008 439.482C440.752 439.138 436.41 438.225 433.331 437.651C430.245 437.077 425.221 436.509 424.424 436.164C423.628 435.82 418.489 435.482 418.374 435.022C418.259 434.563 417.577 434.448 416.889 433.421C416.207 432.394 414.606 432.279 414.606 431.137C414.606 429.995 412.776 414.912 412.324 412.284C411.865 409.655 412.668 409.425 411.412 405.54C410.156 401.654 411.068 401.769 409.359 398.911C407.644 396.052 407.644 395.255 407.192 393.086C406.733 390.917 406.165 387.261 405.936 385.544C405.706 383.828 406.733 383.49 407.421 382.801C407.793 382.429 415.99 376.544 423.506 371.124V374.253C421.953 374.442 420.744 375.753 420.744 377.361C420.744 378.591 421.46 379.645 422.486 380.166C422.007 381.909 421.325 384.835 421.21 387.727C421.028 392.261 419.914 408.635 419.826 410.851C419.738 412.899 419.731 417.602 419.441 419.487C419.738 418.115 420.312 415.372 420.38 414.547C420.474 413.439 420.103 421.021 420.103 421.021C420.103 421.021 421.676 412.878 421.676 413.155C421.676 413.432 421.858 420.095 421.858 420.095L423.06 419.724L423.891 421.67L424.262 418.805C424.262 418.805 425.188 421.028 425.464 421.21C425.741 421.393 426.484 419.264 426.484 419.264C426.484 419.264 426.943 408.439 426.943 408.716C426.943 408.993 428.145 418.521 429.07 420.001C429.07 420.001 428.24 411.304 428.334 409.27C428.334 409.27 428.982 416.392 430.367 418.521C430.367 418.521 429.347 410.013 429.442 407.972C429.536 405.938 428.888 401.127 428.706 400.019C428.523 398.911 427.875 394.282 427.686 392.43C427.504 390.579 427.227 387.808 427.227 386.328C427.227 384.848 426.95 383.463 426.768 382.625C426.619 381.956 426.227 380.571 425.89 379.767C426.585 379.192 427.044 378.327 427.044 377.348C427.044 375.739 425.836 374.428 424.283 374.239V370.563C430.441 366.124 435.938 362.143 435.985 361.995C436.1 361.65 373.53 332.627 369.303 332.404C365.076 332.174 323.635 363.711 322.602 365.88L351.26 378.334C351.26 378.334 350.578 383.929 350.349 384.734C350.119 385.531 345.554 390.903 344.643 392.275C343.731 393.647 337.904 399.472 337.681 404.384C337.681 404.384 339.052 397.985 347.384 390.444C347.384 390.444 341.219 402.783 336.425 405.871C331.63 408.959 323.98 413.068 323.068 413.412C323.068 413.412 333.798 411.128 343.164 400.614C343.164 400.614 336.87 412.04 333.136 416.446L337.451 412.04C337.451 412.04 334.48 419.237 333.568 420.609C332.657 421.981 331.171 423.582 330.374 424.265C329.578 424.947 328.659 425.062 327.403 426.663C326.147 428.265 323.176 433.178 323.176 433.178C323.176 433.178 328.085 426.893 329.112 426.778C330.138 426.663 329.571 429.177 329.226 429.867C328.882 430.549 327.97 432.955 327.059 433.407C326.147 433.867 325.344 433.522 322.609 434.435C319.867 435.347 319.867 435.347 317.241 436.719C314.614 438.09 309.705 438.55 307.99 439.117C306.274 439.692 302.621 440.604 301.824 440.259C301.028 439.915 297.712 438.658 296.571 438.658C295.43 438.658 291.088 439.455 290.635 439.455C290.176 439.455 282.755 438.658 281.27 438.428C279.784 438.198 276.131 438.084 275.449 437.631C274.767 437.171 272.025 436.833 270.999 436.833C269.973 436.833 265.745 437.631 264.145 439.003C262.545 440.374 261.977 439.915 261.977 439.462C261.977 439.003 262.322 431.921 262.551 431.576C262.781 431.232 267.116 421.981 267.461 417.406C267.461 417.406 269.061 417.291 270.546 413.75C272.032 410.209 272.484 408.952 272.944 407.925C273.403 406.898 274.659 395.931 274.085 393.417C273.511 390.903 271.458 388.619 271.458 387.93C271.458 387.247 271.114 386.673 272.032 385.646C272.944 384.619 272.606 384.159 273.403 383.477C273.794 383.139 281.182 377.422 288.562 371.719C288.637 372.523 288.711 373.455 288.758 374.381C287.543 374.658 286.624 375.868 286.624 377.321C286.624 378.233 286.996 379.037 287.563 379.591C287.117 380.159 286.591 381.233 286.543 383.186C286.462 386.605 285.888 397.323 285.888 398.803C285.888 400.282 285.557 408.317 285.314 410.446C285.071 412.567 283.917 414.791 283.917 414.791C283.917 414.791 285.476 413.986 285.956 409.195L285.557 414.237L286.705 407.675L286.543 413.77L287.529 413.399C288.596 413.953 289.17 413.581 289.17 413.581L289.825 412.75C289.825 412.75 289.906 405.729 289.906 404.067C289.906 404.067 290.723 411.824 290.642 412.567C290.561 413.304 291.054 411.277 291.054 411.277L291.628 411.554C291.628 411.554 291.547 400.931 291.216 398.803C290.899 396.735 291.047 390.714 290.973 390.153C291.095 390.714 292.56 396.742 293.019 397.694C293.019 397.694 291.54 391.227 291.459 386.146C291.398 382.591 291.061 380.753 290.669 379.882C291.439 379.355 291.952 378.409 291.952 377.327C291.952 375.672 290.757 374.327 289.285 374.327C289.238 374.327 289.197 374.341 289.157 374.341C289.103 373.422 289.015 372.428 288.873 371.482C296.321 365.725 303.661 360.062 303.661 360.062L237.094 328.755L188.226 363.373C188.226 363.373 215.398 378.456 218.025 379.828C218.025 379.828 217.228 381.659 216.31 382.341C215.398 383.024 214.824 383.943 214.824 383.943L216.654 382.916C216.654 382.916 214.257 385.544 213.913 385.889C213.568 386.234 215.742 385.207 215.742 385.207C215.742 385.207 214.601 387.95 213.69 389.775C212.778 391.599 214.601 389.2 214.601 389.2C214.601 389.2 214.601 391.14 213.919 392.626C213.237 394.113 214.378 394.457 214.378 394.457C214.378 394.457 215.175 396.741 215.29 397.201C215.405 397.661 215.749 400.059 216.087 400.059C216.431 400.059 217.228 401.776 217.113 402.114C216.998 402.458 214.601 399.715 214.372 401.654C214.142 403.594 214.372 405.195 215.628 407.939C216.884 410.682 218.254 414.453 218.714 415.365C219.173 416.277 220.652 419.136 220.881 419.595C221.111 420.055 222.711 427.136 223.852 428.853C223.852 428.853 222.482 431.711 221.455 433.766C221.455 433.766 201.474 434.225 197.024 436.509C197.024 436.509 192.345 434.908 190.17 435.367C188.003 435.827 179.778 434.57 179.441 433.995C179.096 433.421 175.213 425.542 173.275 426.109C171.337 426.684 165.166 425.994 162.086 430.677C162.086 430.677 157.522 430.448 156.489 435.36C156.489 435.36 150.323 433.529 145.867 434.218C141.417 434.901 133.307 434.448 129.424 433.989C129.424 433.989 133.307 427.934 134.218 426.332C135.13 424.731 134.678 424.163 135.36 423.474C136.042 422.791 138.101 419.933 138.668 419.244C139.242 418.561 141.18 415.014 142.436 412.959C143.692 410.905 144.489 409.986 144.489 409.189C144.489 408.391 141.862 405.533 141.403 405.418C140.944 405.303 141.748 402.445 141.977 402.107C142.207 401.762 144.03 399.363 144.145 399.019C144.26 398.674 145.745 391.363 145.975 390.106L163.808 386.301C163.896 387.565 163.977 389.234 163.937 390.903C162.417 390.991 161.209 392.086 161.209 393.43C161.209 394.167 161.573 394.829 162.154 395.295C161.81 395.863 161.31 396.89 161.141 398.316C160.864 400.593 159.493 412.392 158.872 414.554C158.251 416.71 157.569 421.447 157.495 421.683C157.427 421.92 158.042 422.285 158.042 422.285L158.798 421.622L160.243 423.237L160.452 421.92L160.864 423.177L162.032 422.879L162.789 421.744L162.998 422.521L164.301 422.879C164.301 422.879 165.746 400.235 165.746 398.134C165.746 396.755 165.625 396.005 165.544 395.647C166.435 395.214 167.05 394.39 167.05 393.43C167.05 392.106 165.881 391.031 164.396 390.91C164.43 389.775 164.335 388.254 164.004 386.261L179.191 383.024C179.191 383.024 137.973 334.58 135.117 334.35C132.26 334.12 64.5588 347.149 64.5588 347.149C64.5588 347.149 88.9289 375.523 90.5023 376.476C90.5023 376.476 86.5047 387.97 87.0044 388.72C87.5041 389.47 82.0075 387.47 81.258 389.971C80.5084 392.471 80.0087 395.971 80.2586 399.715C80.5084 403.465 81.7577 407.959 83.0069 408.709C84.2561 409.459 87.0044 410.209 87.0044 410.209C87.0044 410.209 85.5053 424.204 85.2555 425.954C85.0057 427.704 85.0056 427.704 85.0056 427.704C85.0056 427.704 83.2567 428.954 82.0075 428.704C80.7583 428.454 78.7595 428.954 78.01 429.204C77.2604 429.454 61.7767 427.204 56.2869 429.954C56.2869 429.954 43.8014 430.204 41.0531 430.454C38.3048 430.704 30.3164 429.704 27.3183 430.954C24.3201 432.205 16.3318 433.455 15.3325 433.955C14.3331 434.455 8.33678 435.955 5.84507 438.205C3.34661 440.455 -3.14262 454.95 -3.14262 455.7C-3.14262 456.45 -0.394318 459.701 1.3546 461.701C3.10352 463.701 5.60198 464.701 5.60198 464.701C5.60198 464.701 3.85306 468.952 -2.63618 487.44C-9.13216 505.935 -15.1217 523.673 -18.8694 546.919C-22.6171 570.158 -28.8565 621.143 -29.3562 624.893C-29.8559 628.643 -31.8546 641.888 -32.854 644.138L-30.8552 646.389L-32.6042 650.889C-32.6042 650.889 -25.6152 651.139 -23.3666 652.139C-21.118 653.139 -16.1211 652.639 -14.1291 652.639C-12.1371 652.639 -12.1303 652.639 -12.1303 652.639L-10.1315 659.64L-8.38263 660.39C-8.38263 660.39 -8.8283 662.633 -9.23346 665.201H324.419C324.371 664.627 324.324 664.107 324.29 663.661C323.784 657.349 320.759 630.84 317.983 627.299L328.835 630.076C328.835 630.076 329.362 653.511 329.389 665.195H455.297C454.257 655.579 453.245 645.733 453.116 643.395C452.866 638.895 451.617 628.65 451.617 628.65C451.617 628.65 456.114 631.901 458.856 633.901C461.604 635.901 467.094 636.651 467.094 637.401C467.094 638.063 466.513 654.187 465.696 665.201H575.21C575.21 665.181 575.21 665.161 575.21 665.141C575.21 658.147 575.21 653.146 575.21 653.146L579.457 652.396C579.457 652.396 579.619 658.275 579.808 665.201H1122.46C1122.82 665.181 1123.13 665.167 1123.32 665.167ZM796.337 412.682C794.824 409.655 796.087 410.412 795.331 407.378C794.574 404.35 791.549 395.262 790.786 393.491C790.03 391.721 789.017 388.943 788.767 387.18C788.517 385.409 788.011 381.875 788.011 381.875C788.011 381.875 792.778 379.591 797.87 377.381C798.457 378.821 800.159 383.22 800.814 387.518C799.47 387.646 798.423 388.768 798.423 390.146C798.423 391.004 798.835 391.755 799.463 392.241C799.591 394.721 800.273 399.539 800.692 401.512C801.259 404.161 802.583 410.79 802.583 412.115C802.583 413.439 803.528 419.69 803.528 419.69L804.035 421.298C800.76 417.507 797.14 414.297 796.337 412.682ZM804.987 422.433L804.284 418.555C804.284 418.555 805.102 421.014 806.06 423.812C805.716 423.346 805.358 422.886 804.987 422.433Z" fill="black"/>
</g>
<defs>
<filter id="filter0_f_14_811" x="-74" y="0" width="1222.91" height="681.262" filterUnits="userSpaceOnUse" color-interpolation-filters="sRGB">
<feFlood flood-opacity="0" result="BackgroundImageFix"/>
<feBlend mode="normal" in="SourceGraphic" in2="BackgroundImageFix" result="shape"/>
<feGaussianBlur stdDeviation="8" result="effect1_foregroundBlur_14_811"/>
</filter>
</defs>
</svg>
