<svg width="77" height="20" viewBox="0 0 77 20" fill="none" xmlns="http://www.w3.org/2000/svg">
<path d="M0.392906 19H13.5091V15.6251H4.53485V1.1027H0.392906V19ZM24.6769 19.3068C30.3018 19.3068 34.4693 15.395 34.4693 10.0513C34.4693 4.70773 30.3018 0.79589 24.6769 0.79589C19.0265 0.79589 14.8845 4.7333 14.8845 10.0513C14.8845 15.3694 19.0265 19.3068 24.6769 19.3068ZM24.6769 15.7785C21.481 15.7785 19.0776 13.4518 19.0776 10.0513C19.0776 6.65086 21.481 4.32421 24.6769 4.32421C27.8729 4.32421 30.2762 6.65086 30.2762 10.0513C30.2762 13.4518 27.8729 15.7785 24.6769 15.7785ZM50.1614 15.0115C49.1131 15.5739 48.0648 15.7785 46.9399 15.7785C43.5138 15.7785 41.136 13.4007 41.136 10.0513C41.136 6.65086 43.5138 4.32421 46.991 4.32421C48.8063 4.32421 50.3148 4.9634 51.6187 6.34405L54.2777 3.88957C52.5392 1.86973 49.9313 0.79589 46.7865 0.79589C41.0849 0.79589 36.9429 4.65659 36.9429 10.0513C36.9429 15.4461 41.0849 19.3068 46.7097 19.3068C49.2665 19.3068 51.9767 18.5142 53.9454 17.0313V9.77011H50.1614V15.0115ZM66.9461 19.3068C72.571 19.3068 76.7385 15.395 76.7385 10.0513C76.7385 4.70773 72.571 0.79589 66.9461 0.79589C61.2957 0.79589 57.1537 4.7333 57.1537 10.0513C57.1537 15.3694 61.2957 19.3068 66.9461 19.3068ZM66.9461 15.7785C63.7502 15.7785 61.3468 13.4518 61.3468 10.0513C61.3468 6.65086 63.7502 4.32421 66.9461 4.32421C70.142 4.32421 72.5454 6.65086 72.5454 10.0513C72.5454 13.4518 70.142 15.7785 66.9461 15.7785Z" fill="#262628"/>
</svg>
