<svg width="144" height="36" viewBox="0 0 144 36" fill="none" xmlns="http://www.w3.org/2000/svg">
<path d="M0.397254 35H25.0213V28.664H8.17325V1.4H0.397254V35ZM45.9875 35.576C56.5475 35.576 64.3715 28.232 64.3715 18.2C64.3715 8.168 56.5475 0.823999 45.9875 0.823999C35.3795 0.823999 27.6035 8.216 27.6035 18.2C27.6035 28.184 35.3795 35.576 45.9875 35.576ZM45.9875 28.952C39.9875 28.952 35.4755 24.584 35.4755 18.2C35.4755 11.816 39.9875 7.448 45.9875 7.448C51.9875 7.448 56.4995 11.816 56.4995 18.2C56.4995 24.584 51.9875 28.952 45.9875 28.952ZM93.8315 27.512C91.8635 28.568 89.8955 28.952 87.7835 28.952C81.3515 28.952 76.8875 24.488 76.8875 18.2C76.8875 11.816 81.3515 7.448 87.8795 7.448C91.2875 7.448 94.1195 8.648 96.5675 11.24L101.559 6.632C98.2955 2.84 93.3995 0.823999 87.4955 0.823999C76.7915 0.823999 69.0155 8.072 69.0155 18.2C69.0155 28.328 76.7915 35.576 87.3515 35.576C92.1515 35.576 97.2395 34.088 100.935 31.304V17.672H93.8315V27.512ZM125.343 35.576C135.903 35.576 143.727 28.232 143.727 18.2C143.727 8.168 135.903 0.823999 125.343 0.823999C114.735 0.823999 106.959 8.216 106.959 18.2C106.959 28.184 114.735 35.576 125.343 35.576ZM125.343 28.952C119.343 28.952 114.831 24.584 114.831 18.2C114.831 11.816 119.343 7.448 125.343 7.448C131.343 7.448 135.855 11.816 135.855 18.2C135.855 24.584 131.343 28.952 125.343 28.952Z" fill="white"/>
</svg>
